<svg xmlns="http://www.w3.org/2000/svg" viewBox="0 0 1177.50 415.76">
  <style>
    .key-bg { fill: #f5f5f5; stroke: #d4d4d4; stroke-width: 1; }
    .key-index { fill: #171717; font-family: ui-monospace, SFMono-Regular, "SF Mono", Menlo, Consolas, "Liberation Mono", monospace; font-weight: 700; text-anchor: middle; dominant-baseline: central; }
    .key-part { font-family: system-ui, -apple-system, BlinkMacSystemFont, "Segoe UI", Roboto, sans-serif; text-anchor: middle; dominant-baseline: central; }
    @media (prefers-color-scheme: dark) {
      .key-bg { fill: #2a2a2a; stroke: #404040; }
      .key-index { fill: #e5e5e5; }
    }
    .key-bg.part-0 { stroke: #f59e0b; }
    .key-part.part-0 { fill: #f59e0b; }
    .key-bg.part-1 { stroke: #14b8a6; }
    .key-part.part-1 { fill: #14b8a6; }
  </style>
  <g>
    <path class="key-bg part-0" d="M 26.00,74.50 L 84.00,74.50 Q 88.00,74.50 88.00,78.50 L 88.00,136.50 Q 88.00,140.50 84.00,140.50 L 26.00,140.50 Q 22.00,140.50 22.00,136.50 L 22.00,78.50 Q 22.00,74.50 26.00,74.50 Z" />
    <path class="key-bg part-0" d="M 96.00,74.50 L 154.00,74.50 Q 158.00,74.50 158.00,78.50 L 158.00,136.50 Q 158.00,140.50 154.00,140.50 L 96.00,140.50 Q 92.00,140.50 92.00,136.50 L 92.00,78.50 Q 92.00,74.50 96.00,74.50 Z" />
    <path class="key-bg part-0" d="M 166.00,39.50 L 224.00,39.50 Q 228.00,39.50 228.00,43.50 L 228.00,101.50 Q 228.00,105.50 224.00,105.50 L 166.00,105.50 Q 162.00,105.50 162.00,101.50 L 162.00,43.50 Q 162.00,39.50 166.00,39.50 Z" />
    <path class="key-bg part-0" d="M 236.00,22.00 L 294.00,22.00 Q 298.00,22.00 298.00,26.00 L 298.00,84.00 Q 298.00,88.00 294.00,88.00 L 236.00,88.00 Q 232.00,88.00 232.00,84.00 L 232.00,26.00 Q 232.00,22.00 236.00,22.00 Z" />
    <path class="key-bg part-0" d="M 306.00,39.50 L 364.00,39.50 Q 368.00,39.50 368.00,43.50 L 368.00,101.50 Q 368.00,105.50 364.00,105.50 L 306.00,105.50 Q 302.00,105.50 302.00,101.50 L 302.00,43.50 Q 302.00,39.50 306.00,39.50 Z" />
    <path class="key-bg part-0" d="M 376.00,57.00 L 434.00,57.00 Q 438.00,57.00 438.00,61.00 L 438.00,119.00 Q 438.00,123.00 434.00,123.00 L 376.00,123.00 Q 372.00,123.00 372.00,119.00 L 372.00,61.00 Q 372.00,57.00 376.00,57.00 Z" />
    <path class="key-bg part-1" d="M 743.50,57.00 L 801.50,57.00 Q 805.50,57.00 805.50,61.00 L 805.50,119.00 Q 805.50,123.00 801.50,123.00 L 743.50,123.00 Q 739.50,123.00 739.50,119.00 L 739.50,61.00 Q 739.50,57.00 743.50,57.00 Z" />
    <path class="key-bg part-1" d="M 813.50,39.50 L 871.50,39.50 Q 875.50,39.50 875.50,43.50 L 875.50,101.50 Q 875.50,105.50 871.50,105.50 L 813.50,105.50 Q 809.50,105.50 809.50,101.50 L 809.50,43.50 Q 809.50,39.50 813.50,39.50 Z" />
    <path class="key-bg part-1" d="M 883.50,22.00 L 941.50,22.00 Q 945.50,22.00 945.50,26.00 L 945.50,84.00 Q 945.50,88.00 941.50,88.00 L 883.50,88.00 Q 879.50,88.00 879.50,84.00 L 879.50,26.00 Q 879.50,22.00 883.50,22.00 Z" />
    <path class="key-bg part-1" d="M 953.50,39.50 L 1011.50,39.50 Q 1015.50,39.50 1015.50,43.50 L 1015.50,101.50 Q 1015.50,105.50 1011.50,105.50 L 953.50,105.50 Q 949.50,105.50 949.50,101.50 L 949.50,43.50 Q 949.50,39.50 953.50,39.50 Z" />
    <path class="key-bg part-1" d="M 1023.50,74.50 L 1081.50,74.50 Q 1085.50,74.50 1085.50,78.50 L 1085.50,136.50 Q 1085.50,140.50 1081.50,140.50 L 1023.50,140.50 Q 1019.50,140.50 1019.50,136.50 L 1019.50,78.50 Q 1019.50,74.50 1023.50,74.50 Z" />
    <path class="key-bg part-1" d="M 1093.50,74.50 L 1151.50,74.50 Q 1155.50,74.50 1155.50,78.50 L 1155.50,136.50 Q 1155.50,140.50 1151.50,140.50 L 1093.50,140.50 Q 1089.50,140.50 1089.50,136.50 L 1089.50,78.50 Q 1089.50,74.50 1093.50,74.50 Z" />
    <path class="key-bg part-0" d="M 26.00,144.50 L 84.00,144.50 Q 88.00,144.50 88.00,148.50 L 88.00,206.50 Q 88.00,210.50 84.00,210.50 L 26.00,210.50 Q 22.00,210.50 22.00,206.50 L 22.00,148.50 Q 22.00,144.50 26.00,144.50 Z" />
    <path class="key-bg part-0" d="M 96.00,144.50 L 154.00,144.50 Q 158.00,144.50 158.00,148.50 L 158.00,206.50 Q 158.00,210.50 154.00,210.50 L 96.00,210.50 Q 92.00,210.50 92.00,206.50 L 92.00,148.50 Q 92.00,144.50 96.00,144.50 Z" />
    <path class="key-bg part-0" d="M 166.00,109.50 L 224.00,109.50 Q 228.00,109.50 228.00,113.50 L 228.00,171.50 Q 228.00,175.50 224.00,175.50 L 166.00,175.50 Q 162.00,175.50 162.00,171.50 L 162.00,113.50 Q 162.00,109.50 166.00,109.50 Z" />
    <path class="key-bg part-0" d="M 236.00,92.00 L 294.00,92.00 Q 298.00,92.00 298.00,96.00 L 298.00,154.00 Q 298.00,158.00 294.00,158.00 L 236.00,158.00 Q 232.00,158.00 232.00,154.00 L 232.00,96.00 Q 232.00,92.00 236.00,92.00 Z" />
    <path class="key-bg part-0" d="M 306.00,109.50 L 364.00,109.50 Q 368.00,109.50 368.00,113.50 L 368.00,171.50 Q 368.00,175.50 364.00,175.50 L 306.00,175.50 Q 302.00,175.50 302.00,171.50 L 302.00,113.50 Q 302.00,109.50 306.00,109.50 Z" />
    <path class="key-bg part-0" d="M 376.00,127.00 L 434.00,127.00 Q 438.00,127.00 438.00,131.00 L 438.00,189.00 Q 438.00,193.00 434.00,193.00 L 376.00,193.00 Q 372.00,193.00 372.00,189.00 L 372.00,131.00 Q 372.00,127.00 376.00,127.00 Z" />
    <path class="key-bg part-1" d="M 743.50,127.00 L 801.50,127.00 Q 805.50,127.00 805.50,131.00 L 805.50,189.00 Q 805.50,193.00 801.50,193.00 L 743.50,193.00 Q 739.50,193.00 739.50,189.00 L 739.50,131.00 Q 739.50,127.00 743.50,127.00 Z" />
    <path class="key-bg part-1" d="M 813.50,109.50 L 871.50,109.50 Q 875.50,109.50 875.50,113.50 L 875.50,171.50 Q 875.50,175.50 871.50,175.50 L 813.50,175.50 Q 809.50,175.50 809.50,171.50 L 809.50,113.50 Q 809.50,109.50 813.50,109.50 Z" />
    <path class="key-bg part-1" d="M 883.50,92.00 L 941.50,92.00 Q 945.50,92.00 945.50,96.00 L 945.50,154.00 Q 945.50,158.00 941.50,158.00 L 883.50,158.00 Q 879.50,158.00 879.50,154.00 L 879.50,96.00 Q 879.50,92.00 883.50,92.00 Z" />
    <path class="key-bg part-1" d="M 953.50,109.50 L 1011.50,109.50 Q 1015.50,109.50 1015.50,113.50 L 1015.50,171.50 Q 1015.50,175.50 1011.50,175.50 L 953.50,175.50 Q 949.50,175.50 949.50,171.50 L 949.50,113.50 Q 949.50,109.50 953.50,109.50 Z" />
    <path class="key-bg part-1" d="M 1023.50,144.50 L 1081.50,144.50 Q 1085.50,144.50 1085.50,148.50 L 1085.50,206.50 Q 1085.50,210.50 1081.50,210.50 L 1023.50,210.50 Q 1019.50,210.50 1019.50,206.50 L 1019.50,148.50 Q 1019.50,144.50 1023.50,144.50 Z" />
    <path class="key-bg part-1" d="M 1093.50,144.50 L 1151.50,144.50 Q 1155.50,144.50 1155.50,148.50 L 1155.50,206.50 Q 1155.50,210.50 1151.50,210.50 L 1093.50,210.50 Q 1089.50,210.50 1089.50,206.50 L 1089.50,148.50 Q 1089.50,144.50 1093.50,144.50 Z" />
    <path class="key-bg part-0" d="M 26.00,214.50 L 84.00,214.50 Q 88.00,214.50 88.00,218.50 L 88.00,276.50 Q 88.00,280.50 84.00,280.50 L 26.00,280.50 Q 22.00,280.50 22.00,276.50 L 22.00,218.50 Q 22.00,214.50 26.00,214.50 Z" />
    <path class="key-bg part-0" d="M 96.00,214.50 L 154.00,214.50 Q 158.00,214.50 158.00,218.50 L 158.00,276.50 Q 158.00,280.50 154.00,280.50 L 96.00,280.50 Q 92.00,280.50 92.00,276.50 L 92.00,218.50 Q 92.00,214.50 96.00,214.50 Z" />
    <path class="key-bg part-0" d="M 166.00,179.50 L 224.00,179.50 Q 228.00,179.50 228.00,183.50 L 228.00,241.50 Q 228.00,245.50 224.00,245.50 L 166.00,245.50 Q 162.00,245.50 162.00,241.50 L 162.00,183.50 Q 162.00,179.50 166.00,179.50 Z" />
    <path class="key-bg part-0" d="M 236.00,162.00 L 294.00,162.00 Q 298.00,162.00 298.00,166.00 L 298.00,224.00 Q 298.00,228.00 294.00,228.00 L 236.00,228.00 Q 232.00,228.00 232.00,224.00 L 232.00,166.00 Q 232.00,162.00 236.00,162.00 Z" />
    <path class="key-bg part-0" d="M 306.00,179.50 L 364.00,179.50 Q 368.00,179.50 368.00,183.50 L 368.00,241.50 Q 368.00,245.50 364.00,245.50 L 306.00,245.50 Q 302.00,245.50 302.00,241.50 L 302.00,183.50 Q 302.00,179.50 306.00,179.50 Z" />
    <path class="key-bg part-0" d="M 376.00,197.00 L 434.00,197.00 Q 438.00,197.00 438.00,201.00 L 438.00,259.00 Q 438.00,263.00 434.00,263.00 L 376.00,263.00 Q 372.00,263.00 372.00,259.00 L 372.00,201.00 Q 372.00,197.00 376.00,197.00 Z" />
    <path class="key-bg part-1" d="M 743.50,197.00 L 801.50,197.00 Q 805.50,197.00 805.50,201.00 L 805.50,259.00 Q 805.50,263.00 801.50,263.00 L 743.50,263.00 Q 739.50,263.00 739.50,259.00 L 739.50,201.00 Q 739.50,197.00 743.50,197.00 Z" />
    <path class="key-bg part-1" d="M 813.50,179.50 L 871.50,179.50 Q 875.50,179.50 875.50,183.50 L 875.50,241.50 Q 875.50,245.50 871.50,245.50 L 813.50,245.50 Q 809.50,245.50 809.50,241.50 L 809.50,183.50 Q 809.50,179.50 813.50,179.50 Z" />
    <path class="key-bg part-1" d="M 883.50,162.00 L 941.50,162.00 Q 945.50,162.00 945.50,166.00 L 945.50,224.00 Q 945.50,228.00 941.50,228.00 L 883.50,228.00 Q 879.50,228.00 879.50,224.00 L 879.50,166.00 Q 879.50,162.00 883.50,162.00 Z" />
    <path class="key-bg part-1" d="M 953.50,179.50 L 1011.50,179.50 Q 1015.50,179.50 1015.50,183.50 L 1015.50,241.50 Q 1015.50,245.50 1011.50,245.50 L 953.50,245.50 Q 949.50,245.50 949.50,241.50 L 949.50,183.50 Q 949.50,179.50 953.50,179.50 Z" />
    <path class="key-bg part-1" d="M 1023.50,214.50 L 1081.50,214.50 Q 1085.50,214.50 1085.50,218.50 L 1085.50,276.50 Q 1085.50,280.50 1081.50,280.50 L 1023.50,280.50 Q 1019.50,280.50 1019.50,276.50 L 1019.50,218.50 Q 1019.50,214.50 1023.50,214.50 Z" />
    <path class="key-bg part-1" d="M 1093.50,214.50 L 1151.50,214.50 Q 1155.50,214.50 1155.50,218.50 L 1155.50,276.50 Q 1155.50,280.50 1151.50,280.50 L 1093.50,280.50 Q 1089.50,280.50 1089.50,276.50 L 1089.50,218.50 Q 1089.50,214.50 1093.50,214.50 Z" />
    <path class="key-bg part-0" d="M 166.00,249.50 L 224.00,249.50 Q 228.00,249.50 228.00,253.50 L 228.00,311.50 Q 228.00,315.50 224.00,315.50 L 166.00,315.50 Q 162.00,315.50 162.00,311.50 L 162.00,253.50 Q 162.00,249.50 166.00,249.50 Z" />
    <path class="key-bg part-0" d="M 236.00,232.00 L 294.00,232.00 Q 298.00,232.00 298.00,236.00 L 298.00,294.00 Q 298.00,298.00 294.00,298.00 L 236.00,298.00 Q 232.00,298.00 232.00,294.00 L 232.00,236.00 Q 232.00,232.00 236.00,232.00 Z" />
    <path class="key-bg part-0" d="M 339.49,270.73 L 395.52,285.75 Q 399.38,286.78 398.34,290.64 L 383.33,346.67 Q 382.30,350.53 378.43,349.50 L 322.41,334.49 Q 318.55,333.45 319.58,329.59 L 334.59,273.56 Q 335.63,269.70 339.49,270.73 Z" />
    <path class="key-bg part-0" d="M 407.11,288.85 L 463.13,303.86 Q 466.99,304.90 465.96,308.76 L 450.95,364.79 Q 449.91,368.65 446.05,367.61 L 390.02,352.60 Q 386.16,351.57 387.20,347.70 L 402.21,291.68 Q 403.24,287.82 407.11,288.85 Z" />
    <path class="key-bg part-0" d="M 474.72,306.97 L 530.74,321.98 Q 534.61,323.02 533.57,326.88 L 518.56,382.90 Q 517.53,386.77 513.66,385.73 L 457.64,370.72 Q 453.78,369.68 454.81,365.82 L 469.82,309.80 Q 470.86,305.93 474.72,306.97 Z" />
    <path class="key-bg part-1" d="M 634.28,328.52 L 690.31,313.51 Q 694.17,312.48 695.21,316.34 L 710.22,372.37 Q 711.25,376.23 707.39,377.26 L 651.37,392.28 Q 647.50,393.31 646.47,389.45 L 631.45,333.42 Q 630.42,329.56 634.28,328.52 Z" />
    <path class="key-bg part-1" d="M 701.90,310.41 L 757.92,295.40 Q 761.79,294.36 762.82,298.22 L 777.83,354.25 Q 778.87,358.11 775.00,359.15 L 718.98,374.16 Q 715.12,375.19 714.08,371.33 L 699.07,315.31 Q 698.03,311.44 701.90,310.41 Z" />
    <path class="key-bg part-1" d="M 769.51,292.29 L 825.54,277.28 Q 829.40,276.24 830.44,280.11 L 845.45,336.13 Q 846.48,339.99 842.62,341.03 L 786.59,356.04 Q 782.73,357.08 781.70,353.21 L 766.68,297.19 Q 765.65,293.33 769.51,292.29 Z" />
    <path class="key-bg part-1" d="M 883.50,232.00 L 941.50,232.00 Q 945.50,232.00 945.50,236.00 L 945.50,294.00 Q 945.50,298.00 941.50,298.00 L 883.50,298.00 Q 879.50,298.00 879.50,294.00 L 879.50,236.00 Q 879.50,232.00 883.50,232.00 Z" />
    <path class="key-bg part-1" d="M 953.50,249.50 L 1011.50,249.50 Q 1015.50,249.50 1015.50,253.50 L 1015.50,311.50 Q 1015.50,315.50 1011.50,315.50 L 953.50,315.50 Q 949.50,315.50 949.50,311.50 L 949.50,253.50 Q 949.50,249.50 953.50,249.50 Z" />
  </g>
  <g>
    <text class="key-index" x="55.00" y="95.86" font-size="26">0</text>
    <text class="key-part part-0" x="55.00" y="123.14" font-size="18">left</text>
    <text class="key-index" x="125.00" y="95.86" font-size="26">1</text>
    <text class="key-part part-0" x="125.00" y="123.14" font-size="18">left</text>
    <text class="key-index" x="195.00" y="60.86" font-size="26">2</text>
    <text class="key-part part-0" x="195.00" y="88.14" font-size="18">left</text>
    <text class="key-index" x="265.00" y="43.36" font-size="26">3</text>
    <text class="key-part part-0" x="265.00" y="70.64" font-size="18">left</text>
    <text class="key-index" x="335.00" y="60.86" font-size="26">4</text>
    <text class="key-part part-0" x="335.00" y="88.14" font-size="18">left</text>
    <text class="key-index" x="405.00" y="78.36" font-size="26">5</text>
    <text class="key-part part-0" x="405.00" y="105.64" font-size="18">left</text>
    <text class="key-index" x="772.50" y="78.36" font-size="26">6</text>
    <text class="key-part part-1" x="772.50" y="105.64" font-size="18">right</text>
    <text class="key-index" x="842.50" y="60.86" font-size="26">7</text>
    <text class="key-part part-1" x="842.50" y="88.14" font-size="18">right</text>
    <text class="key-index" x="912.50" y="43.36" font-size="26">8</text>
    <text class="key-part part-1" x="912.50" y="70.64" font-size="18">right</text>
    <text class="key-index" x="982.50" y="60.86" font-size="26">9</text>
    <text class="key-part part-1" x="982.50" y="88.14" font-size="18">right</text>
    <text class="key-index" x="1052.50" y="95.86" font-size="26">10</text>
    <text class="key-part part-1" x="1052.50" y="123.14" font-size="18">right</text>
    <text class="key-index" x="1122.50" y="95.86" font-size="26">11</text>
    <text class="key-part part-1" x="1122.50" y="123.14" font-size="18">right</text>
    <text class="key-index" x="55.00" y="165.86" font-size="26">12</text>
    <text class="key-part part-0" x="55.00" y="193.14" font-size="18">left</text>
    <text class="key-index" x="125.00" y="165.86" font-size="26">13</text>
    <text class="key-part part-0" x="125.00" y="193.14" font-size="18">left</text>
    <text class="key-index" x="195.00" y="130.86" font-size="26">14</text>
    <text class="key-part part-0" x="195.00" y="158.14" font-size="18">left</text>
    <text class="key-index" x="265.00" y="113.36" font-size="26">15</text>
    <text class="key-part part-0" x="265.00" y="140.64" font-size="18">left</text>
    <text class="key-index" x="335.00" y="130.86" font-size="26">16</text>
    <text class="key-part part-0" x="335.00" y="158.14" font-size="18">left</text>
    <text class="key-index" x="405.00" y="148.36" font-size="26">17</text>
    <text class="key-part part-0" x="405.00" y="175.64" font-size="18">left</text>
    <text class="key-index" x="772.50" y="148.36" font-size="26">18</text>
    <text class="key-part part-1" x="772.50" y="175.64" font-size="18">right</text>
    <text class="key-index" x="842.50" y="130.86" font-size="26">19</text>
    <text class="key-part part-1" x="842.50" y="158.14" font-size="18">right</text>
    <text class="key-index" x="912.50" y="113.36" font-size="26">20</text>
    <text class="key-part part-1" x="912.50" y="140.64" font-size="18">right</text>
    <text class="key-index" x="982.50" y="130.86" font-size="26">21</text>
    <text class="key-part part-1" x="982.50" y="158.14" font-size="18">right</text>
    <text class="key-index" x="1052.50" y="165.86" font-size="26">22</text>
    <text class="key-part part-1" x="1052.50" y="193.14" font-size="18">right</text>
    <text class="key-index" x="1122.50" y="165.86" font-size="26">23</text>
    <text class="key-part part-1" x="1122.50" y="193.14" font-size="18">right</text>
    <text class="key-index" x="55.00" y="235.86" font-size="26">24</text>
    <text class="key-part part-0" x="55.00" y="263.14" font-size="18">left</text>
    <text class="key-index" x="125.00" y="235.86" font-size="26">25</text>
    <text class="key-part part-0" x="125.00" y="263.14" font-size="18">left</text>
    <text class="key-index" x="195.00" y="200.86" font-size="26">26</text>
    <text class="key-part part-0" x="195.00" y="228.14" font-size="18">left</text>
    <text class="key-index" x="265.00" y="183.36" font-size="26">27</text>
    <text class="key-part part-0" x="265.00" y="210.64" font-size="18">left</text>
    <text class="key-index" x="335.00" y="200.86" font-size="26">28</text>
    <text class="key-part part-0" x="335.00" y="228.14" font-size="18">left</text>
    <text class="key-index" x="405.00" y="218.36" font-size="26">29</text>
    <text class="key-part part-0" x="405.00" y="245.64" font-size="18">left</text>
    <text class="key-index" x="772.50" y="218.36" font-size="26">30</text>
    <text class="key-part part-1" x="772.50" y="245.64" font-size="18">right</text>
    <text class="key-index" x="842.50" y="200.86" font-size="26">31</text>
    <text class="key-part part-1" x="842.50" y="228.14" font-size="18">right</text>
    <text class="key-index" x="912.50" y="183.36" font-size="26">32</text>
    <text class="key-part part-1" x="912.50" y="210.64" font-size="18">right</text>
    <text class="key-index" x="982.50" y="200.86" font-size="26">33</text>
    <text class="key-part part-1" x="982.50" y="228.14" font-size="18">right</text>
    <text class="key-index" x="1052.50" y="235.86" font-size="26">34</text>
    <text class="key-part part-1" x="1052.50" y="263.14" font-size="18">right</text>
    <text class="key-index" x="1122.50" y="235.86" font-size="26">35</text>
    <text class="key-part part-1" x="1122.50" y="263.14" font-size="18">right</text>
    <text class="key-index" x="195.00" y="270.86" font-size="26">36</text>
    <text class="key-part part-0" x="195.00" y="298.14" font-size="18">left</text>
    <text class="key-index" x="265.00" y="253.36" font-size="26">37</text>
    <text class="key-part part-0" x="265.00" y="280.64" font-size="18">left</text>
    <text class="key-index" x="358.96" y="298.48" font-size="26" transform="rotate(15 358.96 310.12)">38</text>
    <text class="key-part part-0" x="358.96" y="325.76" font-size="18" transform="rotate(15 358.96 310.12)">left</text>
    <text class="key-index" x="426.58" y="316.59" font-size="26" transform="rotate(15 426.58 328.23)">39</text>
    <text class="key-part part-0" x="426.58" y="343.87" font-size="18" transform="rotate(15 426.58 328.23)">left</text>
    <text class="key-index" x="494.19" y="334.71" font-size="26" transform="rotate(15 494.19 346.35)">40</text>
    <text class="key-part part-0" x="494.19" y="361.99" font-size="18" transform="rotate(15 494.19 346.35)">left</text>
    <text class="key-index" x="670.84" y="341.25" font-size="26" transform="rotate(-15 670.84 352.89)">41</text>
    <text class="key-part part-1" x="670.84" y="368.53" font-size="18" transform="rotate(-15 670.84 352.89)">right</text>
    <text class="key-index" x="738.45" y="323.14" font-size="26" transform="rotate(-15 738.45 334.78)">42</text>
    <text class="key-part part-1" x="738.45" y="350.42" font-size="18" transform="rotate(-15 738.45 334.78)">right</text>
    <text class="key-index" x="806.07" y="305.02" font-size="26" transform="rotate(-15 806.07 316.66)">43</text>
    <text class="key-part part-1" x="806.07" y="332.30" font-size="18" transform="rotate(-15 806.07 316.66)">right</text>
    <text class="key-index" x="912.50" y="253.36" font-size="26">44</text>
    <text class="key-part part-1" x="912.50" y="280.64" font-size="18">right</text>
    <text class="key-index" x="982.50" y="270.86" font-size="26">45</text>
    <text class="key-part part-1" x="982.50" y="298.14" font-size="18">right</text>
  </g>
</svg>
